<svg width="656" height="176" viewBox="0 0 656 176" fill="none" xmlns="http://www.w3.org/2000/svg">
<path d="M113.548 71.004C110.391 83.9293 103.681 94.3386 93.4201 102.232C83.2574 110.125 71.5161 114.072 58.1961 114.072C42.2121 114.072 28.5961 108.596 17.3481 97.644C6.10007 86.5933 0.476074 73.076 0.476074 57.092C0.476074 41.108 6.05074 27.6893 17.2001 16.836C28.3494 5.88396 41.9161 0.407959 57.9001 0.407959C67.8654 0.407959 77.0414 2.62796 85.4281 7.06795C93.8147 11.508 100.721 17.872 106.148 26.16C110.095 32.08 112.561 38.0493 113.548 44.068H84.2441C82.0734 38.3453 78.6201 33.7573 73.8841 30.304C69.1481 26.752 63.7707 24.976 57.7521 24.976C49.1681 24.976 42.1134 28.1333 36.5881 34.448C31.1614 40.664 28.4481 48.1626 28.4481 56.944C28.4481 65.7253 31.1614 73.372 36.5881 79.884C42.1134 86.2973 49.2174 89.504 57.9001 89.504C63.8201 89.504 69.0494 87.8266 73.5881 84.472C78.1267 81.1173 81.6787 76.628 84.2441 71.004H113.548Z" fill="#1F4564"/>
<path d="M148.629 112H124.061V2.47996H148.629V112Z" fill="#1F4564"/>
<path d="M245.44 71.892C245.44 74.26 245.243 76.4306 244.848 78.404H183.28C183.971 83.14 186.092 86.9386 189.644 89.8C193.295 92.5626 197.587 93.944 202.52 93.944C208.44 93.944 213.423 91.3786 217.468 86.248H242.628C238.978 94.7333 233.6 101.591 226.496 106.82C219.491 112.049 211.499 114.664 202.52 114.664C190.483 114.664 180.222 110.421 171.736 101.936C163.251 93.4506 159.008 83.1893 159.008 71.152C159.008 59.1146 163.202 48.7546 171.588 40.072C179.975 31.3893 190.138 27.048 202.076 27.048C214.508 27.048 224.819 31.3893 233.008 40.072C241.296 48.7546 245.44 59.3613 245.44 71.892ZM220.872 61.828C219.886 57.4866 217.666 54.0826 214.212 51.616C210.759 49.0506 206.763 47.768 202.224 47.768C197.686 47.768 193.69 49.0506 190.236 51.616C186.783 54.0826 184.563 57.4866 183.576 61.828H220.872Z" fill="#1F4564"/>
<path d="M342.452 112H317.884V103.12H317.588C315.516 107.067 312.211 110.027 307.672 112C303.232 113.875 298.545 114.812 293.612 114.812C281.279 114.812 271.313 110.619 263.716 102.232C256.119 93.8453 252.32 83.3866 252.32 70.856C252.32 58.6213 256.168 48.2613 263.864 39.776C271.56 31.2906 281.476 27.048 293.612 27.048C298.545 27.048 303.183 28.0346 307.524 30.008C311.964 31.8826 315.319 34.744 317.588 38.592H317.884V29.86H342.452V112ZM317.884 70.856C317.884 64.8373 315.911 59.8546 311.964 55.908C308.116 51.9613 303.183 49.988 297.164 49.988C291.244 49.988 286.36 52.06 282.512 56.204C278.763 60.2493 276.888 65.232 276.888 71.152C276.888 76.8746 278.861 81.7586 282.808 85.804C286.755 89.8493 291.589 91.872 297.312 91.872C303.232 91.872 308.116 89.8493 311.964 85.804C315.911 81.7586 317.884 76.776 317.884 70.856Z" fill="#1F4564"/>
<path d="M433.487 112H408.919V67.156C408.919 61.7293 408.031 57.536 406.255 54.576C404.479 51.616 401.075 50.136 396.043 50.136C390.715 50.136 387.015 51.6653 384.943 54.724C382.97 57.684 381.983 61.8773 381.983 67.304V112H357.415V29.86H380.355V38.592H380.651C385.387 30.896 392.836 27.048 402.999 27.048C406.551 27.048 410.3 27.6893 414.247 28.972C418.194 30.2546 421.45 31.9813 424.015 34.152C430.33 39.3813 433.487 48.212 433.487 60.644V112Z" fill="#1F4564"/>
<path d="M511.922 21.128H487.354V2.47996H511.922V21.128ZM511.922 112H487.354V29.86H511.922V112Z" fill="#1F4564"/>
<path d="M562.558 48.508H552.198V112H527.63V48.508H518.454V29.86H527.63V25.568C527.63 8.79462 538.089 0.407959 559.006 0.407959H562.558V18.908C558.118 18.908 555.257 19.5986 553.974 20.98C552.79 22.2626 552.198 25.2226 552.198 29.86H562.558V48.508Z" fill="#1F4564"/>
<path d="M651.591 71.892C651.591 74.26 651.393 76.4306 650.999 78.404H589.431C590.121 83.14 592.242 86.9386 595.794 89.8C599.445 92.5626 603.737 93.944 608.671 93.944C614.591 93.944 619.573 91.3786 623.619 86.248H648.779C645.128 94.7333 639.751 101.591 632.647 106.82C625.641 112.049 617.649 114.664 608.671 114.664C596.633 114.664 586.372 110.421 577.887 101.936C569.401 93.4506 565.159 83.1893 565.159 71.152C565.159 59.1146 569.352 48.7546 577.739 40.072C586.125 31.3893 596.288 27.048 608.227 27.048C620.659 27.048 630.969 31.3893 639.159 40.072C647.447 48.7546 651.591 59.3613 651.591 71.892ZM627.023 61.828C626.036 57.4866 623.816 54.0826 620.363 51.616C616.909 49.0506 612.913 47.768 608.375 47.768C603.836 47.768 599.84 49.0506 596.387 51.616C592.933 54.0826 590.713 57.4866 589.727 61.828H627.023Z" fill="#1F4564"/>
<path d="M472.535 112H447.967V2.47998H472.535V112Z" fill="#33BC84"/>
<path d="M460.689 165.884C460.689 168.631 459.801 170.879 458.025 172.627C456.249 174.347 453.987 175.208 451.24 175.208C448.437 175.208 446.148 174.292 444.372 172.46C442.623 170.629 441.749 168.312 441.749 165.509H446.245C446.245 167.091 446.689 168.423 447.577 169.505C448.465 170.56 449.686 171.087 451.24 171.087C452.766 171.087 453.973 170.601 454.861 169.63C455.749 168.659 456.193 167.41 456.193 165.884C456.193 165.134 456.068 164.496 455.819 163.969C455.597 163.414 455.25 162.97 454.778 162.637C454.334 162.276 453.848 161.971 453.321 161.721C452.822 161.471 452.253 161.222 451.614 160.972C451.448 160.916 451.323 160.875 451.24 160.847C450.158 160.431 449.367 160.126 448.867 159.931C448.395 159.709 447.743 159.39 446.911 158.974C446.078 158.558 445.468 158.155 445.079 157.767C444.691 157.378 444.275 156.893 443.831 156.31C443.387 155.699 443.067 155.006 442.873 154.229C442.707 153.452 442.623 152.578 442.623 151.606C442.623 149.248 443.456 147.263 445.121 145.654C446.814 144.044 448.853 143.24 451.24 143.24C453.821 143.24 455.93 144.031 457.567 145.612C459.232 147.166 460.064 149.234 460.064 151.814H455.569C455.569 150.482 455.18 149.414 454.403 148.609C453.626 147.777 452.572 147.361 451.24 147.361C450.13 147.361 449.159 147.777 448.326 148.609C447.521 149.442 447.119 150.427 447.119 151.565C447.119 152.453 447.369 153.202 447.868 153.812C448.368 154.395 449.006 154.867 449.783 155.228C450.588 155.588 451.476 155.935 452.447 156.268C453.418 156.574 454.389 156.962 455.361 157.434C456.332 157.878 457.206 158.419 457.983 159.057C458.788 159.695 459.44 160.597 459.939 161.763C460.439 162.928 460.689 164.302 460.689 165.884Z" fill="#135658"/>
<path d="M495.405 159.307C495.405 163.691 493.837 167.438 490.701 170.546C487.565 173.654 483.791 175.208 479.379 175.208C474.967 175.208 471.193 173.654 468.057 170.546C464.921 167.41 463.354 163.636 463.354 159.224C463.354 154.784 464.908 151.01 468.016 147.902C471.151 144.794 474.939 143.24 479.379 143.24C483.875 143.24 487.663 144.794 490.743 147.902C493.851 151.01 495.405 154.811 495.405 159.307ZM490.909 159.349C490.909 156.019 489.813 153.188 487.621 150.857C485.429 148.526 482.681 147.361 479.379 147.361C476.993 147.361 474.884 147.971 473.052 149.192C471.248 150.413 469.875 152.12 468.931 154.312C468.21 155.977 467.849 157.614 467.849 159.224C467.849 160.833 468.21 162.498 468.931 164.219C469.903 166.383 471.29 168.076 473.094 169.297C474.925 170.49 477.02 171.087 479.379 171.087C481.904 171.087 484.097 170.421 485.956 169.089C487.843 167.729 489.23 165.856 490.118 163.469C490.646 162.11 490.909 160.736 490.909 159.349Z" fill="#135658"/>
<path d="M515.456 174.625H500.263V143.822H504.758V170.504H515.456V174.625Z" fill="#135658"/>
<path d="M539.154 164.677C539.154 168.09 538.114 170.726 536.032 172.585C534.09 174.334 531.69 175.208 528.831 175.208C525.973 175.208 523.573 174.334 521.63 172.585C519.549 170.726 518.508 168.09 518.508 164.677V143.822H523.004V164.552C523.004 166.466 523.503 168.034 524.502 169.255C525.529 170.476 526.972 171.087 528.831 171.087C530.691 171.087 532.12 170.476 533.119 169.255C534.145 168.034 534.659 166.466 534.659 164.552V143.822H539.154V164.677Z" fill="#135658"/>
<path d="M558.825 147.943H552.915V174.625H548.419V147.943H542.508V143.822H558.825V147.943Z" fill="#135658"/>
<path d="M566.785 174.625H562.29V143.822H566.785V174.625Z" fill="#135658"/>
<path d="M603.492 159.307C603.492 163.691 601.924 167.438 598.788 170.546C595.652 173.654 591.878 175.208 587.466 175.208C583.054 175.208 579.28 173.654 576.144 170.546C573.008 167.41 571.44 163.636 571.44 159.224C571.44 154.784 572.994 151.01 576.102 147.902C579.238 144.794 583.026 143.24 587.466 143.24C591.962 143.24 595.749 144.794 598.83 147.902C601.938 151.01 603.492 154.811 603.492 159.307ZM598.996 159.349C598.996 156.019 597.9 153.188 595.708 150.857C593.516 148.526 590.768 147.361 587.466 147.361C585.08 147.361 582.971 147.971 581.139 149.192C579.335 150.413 577.962 152.12 577.018 154.312C576.297 155.977 575.936 157.614 575.936 159.224C575.936 160.833 576.297 162.498 577.018 164.219C577.989 166.383 579.377 168.076 581.181 169.297C583.012 170.49 585.107 171.087 587.466 171.087C589.991 171.087 592.184 170.421 594.043 169.089C595.93 167.729 597.317 165.856 598.205 163.469C598.733 162.11 598.996 160.736 598.996 159.349Z" fill="#135658"/>
<path d="M632.658 174.625H627.996L612.762 150.815H612.678V174.625H608.183V143.822H613.095L628.08 167.257H628.163V143.822H632.658V174.625Z" fill="#135658"/>
<path d="M655.481 165.884C655.481 168.631 654.593 170.879 652.817 172.627C651.041 174.347 648.779 175.208 646.032 175.208C643.229 175.208 640.94 174.292 639.164 172.46C637.415 170.629 636.541 168.312 636.541 165.509H641.037C641.037 167.091 641.481 168.423 642.369 169.505C643.257 170.56 644.478 171.087 646.032 171.087C647.558 171.087 648.765 170.601 649.653 169.63C650.541 168.659 650.985 167.41 650.985 165.884C650.985 165.134 650.86 164.496 650.611 163.969C650.389 163.414 650.042 162.97 649.57 162.637C649.126 162.276 648.64 161.971 648.113 161.721C647.614 161.471 647.045 161.222 646.406 160.972C646.24 160.916 646.115 160.875 646.032 160.847C644.95 160.431 644.159 160.126 643.659 159.931C643.187 159.709 642.535 159.39 641.703 158.974C640.87 158.558 640.26 158.155 639.871 157.767C639.483 157.378 639.067 156.893 638.623 156.31C638.179 155.699 637.859 155.006 637.665 154.229C637.499 153.452 637.415 152.578 637.415 151.606C637.415 149.248 638.248 147.263 639.913 145.654C641.606 144.044 643.645 143.24 646.032 143.24C648.613 143.24 650.722 144.031 652.359 145.612C654.024 147.166 654.856 149.234 654.856 151.814H650.361C650.361 150.482 649.972 149.414 649.195 148.609C648.418 147.777 647.364 147.361 646.032 147.361C644.922 147.361 643.951 147.777 643.118 148.609C642.313 149.442 641.911 150.427 641.911 151.565C641.911 152.453 642.161 153.202 642.66 153.812C643.16 154.395 643.798 154.867 644.575 155.228C645.38 155.588 646.268 155.935 647.239 156.268C648.21 156.574 649.181 156.962 650.153 157.434C651.124 157.878 651.998 158.419 652.775 159.057C653.58 159.695 654.232 160.597 654.731 161.763C655.231 162.928 655.481 164.302 655.481 165.884Z" fill="#135658"/>
</svg>
