<svg width="20" height="20" viewBox="0 0 20 20" fill="none" xmlns="http://www.w3.org/2000/svg">
<path d="M5 10L10 5L15 10L10 15L5 10Z" fill="#FF9A83"/>
<path d="M9.99997 18.75C9.82897 18.7502 9.6596 18.7167 9.5016 18.6512C9.34361 18.5858 9.2001 18.4898 9.07935 18.3687L1.6306 10.9212C1.38687 10.6768 1.25 10.3458 1.25 10.0006C1.25 9.65544 1.38687 9.32437 1.6306 9.07997L9.07935 1.6306C9.32374 1.38687 9.65481 1.25 9.99997 1.25C10.3451 1.25 10.6762 1.38687 10.9206 1.6306L18.3693 9.07935C18.6131 9.32374 18.7499 9.65481 18.7499 9.99997C18.7499 10.3451 18.6131 10.6762 18.3693 10.9206L10.9206 18.3693C10.7998 18.4903 10.6563 18.5862 10.4983 18.6515C10.3403 18.7169 10.1709 18.7503 9.99997 18.75ZM9.99997 2.49997C9.99304 2.49987 9.98616 2.50115 9.97972 2.50372C9.97328 2.5063 9.96742 2.51012 9.96247 2.51497L2.5156 9.96247C2.5059 9.9723 2.50047 9.98554 2.50047 9.99935C2.50047 10.0131 2.5059 10.0264 2.5156 10.0362L9.96247 17.485C9.9723 17.4947 9.98554 17.5001 9.99935 17.5001C10.0131 17.5001 10.0264 17.4947 10.0362 17.485L17.485 10.0375C17.4947 10.0276 17.5001 10.0144 17.5001 10.0006C17.5001 9.98679 17.4947 9.97355 17.485 9.96372L10.0375 2.51497C10.0326 2.51001 10.0267 2.50607 10.0203 2.50338C10.0139 2.5007 10.0069 2.49933 9.99997 2.49935V2.49997Z" fill="#FF9A83"/>
</svg>
