<svg width="20" height="20" viewBox="0 0 20 20" fill="none" xmlns="http://www.w3.org/2000/svg">
<path d="M10.0001 1.66666C7.79867 1.69474 5.69533 2.58173 4.13857 4.13848C2.58181 5.69524 1.69482 7.79859 1.66675 10C1.67704 11.2824 1.98318 12.5452 2.56134 13.6899C3.1395 14.8347 3.97407 15.8306 5.00008 16.6V16.6667H5.08341C6.4944 17.7479 8.22246 18.3339 10.0001 18.3339C11.7777 18.3339 13.5058 17.7479 14.9167 16.6667H15.0001V16.6C16.0261 15.8306 16.8607 14.8347 17.4388 13.6899C18.017 12.5452 18.3231 11.2824 18.3334 10C18.3053 7.79859 17.4184 5.69524 15.8616 4.13848C14.3048 2.58173 12.2015 1.69474 10.0001 1.66666ZM6.72508 15.775C6.84674 15.2179 7.15521 14.7191 7.59932 14.3614C8.04343 14.0036 8.59649 13.8085 9.16675 13.8083H10.8334C11.4037 13.8085 11.9567 14.0036 12.4008 14.3614C12.845 14.7191 13.1534 15.2179 13.2751 15.775C12.2825 16.359 11.1518 16.667 10.0001 16.667C8.84841 16.667 7.71769 16.359 6.72508 15.775ZM14.6751 14.7C14.3581 13.9425 13.8243 13.2955 13.1409 12.8403C12.4574 12.3851 11.6546 12.1421 10.8334 12.1417H9.16675C8.34556 12.1421 7.54281 12.3851 6.85931 12.8403C6.17582 13.2955 5.64206 13.9425 5.32508 14.7C4.70063 14.0858 4.20333 13.3546 3.86159 12.5482C3.51985 11.7417 3.34037 10.8758 3.33341 10C3.35503 8.2386 4.06435 6.55544 5.30994 5.30985C6.55552 4.06426 8.23869 3.35495 10.0001 3.33333C11.7615 3.35495 13.4446 4.06426 14.6902 5.30985C15.9358 6.55544 16.6451 8.2386 16.6667 10C16.6598 10.8758 16.4803 11.7417 16.1386 12.5482C15.7968 13.3546 15.2995 14.0858 14.6751 14.7Z" fill="#135658"/>
<path d="M9.99999 5C9.55944 4.98974 9.12139 5.06894 8.71233 5.23282C8.30328 5.39671 7.93171 5.64186 7.62011 5.95346C7.30852 6.26506 7.06336 6.63662 6.89948 7.04568C6.7356 7.45474 6.65639 7.89279 6.66666 8.33333C6.65639 8.77388 6.7356 9.21193 6.89948 9.62099C7.06336 10.03 7.30852 10.4016 7.62011 10.7132C7.93171 11.0248 8.30328 11.27 8.71233 11.4338C9.12139 11.5977 9.55944 11.6769 9.99999 11.6667C10.4405 11.6769 10.8786 11.5977 11.2876 11.4338C11.6967 11.27 12.0683 11.0248 12.3799 10.7132C12.6915 10.4016 12.9366 10.03 13.1005 9.62099C13.2644 9.21193 13.3436 8.77388 13.3333 8.33333C13.3436 7.89279 13.2644 7.45474 13.1005 7.04568C12.9366 6.63662 12.6915 6.26506 12.3799 5.95346C12.0683 5.64186 11.6967 5.39671 11.2876 5.23282C10.8786 5.06894 10.4405 4.98974 9.99999 5ZM9.99999 10C9.77828 10.0107 9.55678 9.97494 9.34972 9.89498C9.14266 9.81501 8.95461 9.69262 8.79765 9.53567C8.6407 9.37871 8.51831 9.19066 8.43834 8.9836C8.35838 8.77654 8.3226 8.55504 8.33332 8.33333C8.3226 8.11162 8.35838 7.89012 8.43834 7.68306C8.51831 7.476 8.6407 7.28795 8.79765 7.131C8.95461 6.97404 9.14266 6.85165 9.34972 6.77169C9.55678 6.69172 9.77828 6.65595 9.99999 6.66667C10.2217 6.65595 10.4432 6.69172 10.6503 6.77169C10.8573 6.85165 11.0454 6.97404 11.2023 7.131C11.3593 7.28795 11.4817 7.476 11.5616 7.68306C11.6416 7.89012 11.6774 8.11162 11.6667 8.33333C11.6774 8.55504 11.6416 8.77654 11.5616 8.9836C11.4817 9.19066 11.3593 9.37871 11.2023 9.53567C11.0454 9.69262 10.8573 9.81501 10.6503 9.89498C10.4432 9.97494 10.2217 10.0107 9.99999 10Z" fill="#135658"/>
</svg>
